<svg xmlns="http://www.w3.org/2000/svg" viewBox="0 0 137.74 137.74"><defs><style>.cls-1{fill:#fff;}.cls-2{fill:#ff7bbd;}</style></defs><g id="Capa_2" data-name="Capa 2"><g id="Capa_4" data-name="Capa 4"><path class="cls-1" d="M68.87,0A68.88,68.88,0,0,0,15.13,112c1.35,1.68,2.78,3.3,4.28,4.84a68.86,68.86,0,0,0,99.68-.8c1.5-1.6,2.93-3.27,4.26-5A68.86,68.86,0,0,0,68.87,0Zm40.31,64.9a103.13,103.13,0,0,0-5.24-29.52,86.49,86.49,0,0,0,12.44-5.46l.3-.16A61.57,61.57,0,0,1,130.34,64.9ZM7,64.9A61.4,61.4,0,0,1,20,30.52l.72.37a89,89,0,0,0,13.62,5.49A104,104,0,0,0,29.44,64.9ZM73.28,8.4C81.34,10.65,88.4,19,93.23,31c-6.3,1.45-13-4.69-20-4.36ZM89,10.26a61.83,61.83,0,0,1,23,14.35l-.41.19a92.59,92.59,0,0,1-10.24,3.94A57.7,57.7,0,0,0,89,10.26Zm-24-2,.4,14c-7.17-.16-14.47,10.52-21,9.17C49.23,19,56.55,10.37,64.9,8.27Zm0,75V97a111.86,111.86,0,0,0-22.84,3.29,107.56,107.56,0,0,1-4.24-27Zm0,21.21V130c-8.25-2.07-15.49-10.51-20.42-22.73A112.52,112.52,0,0,1,64.9,104.52Zm8.38,25.32V104.46a114,114,0,0,1,20.15,2.32C88.59,119,81.45,127.55,73.28,129.84Zm0-32.89V83.31l26.64-10a107.85,107.85,0,0,1-4.1,26.52A113.41,113.41,0,0,0,73.28,97Zm-29-22.43L35.05,41.67C70.91,7,88,35.15,95,33.37c2.41,8,12.89,18.13-3.55,45.46L54,82.78C51.09,83.09,45.24,77.32,44.3,74.52ZM50.39,9.58c-5.35,4.88-10,11.76-13.51,20a93.64,93.64,0,0,1-11.39-4l-.83-.37A61.88,61.88,0,0,1,50.39,9.58ZM7,73.28H29.44a103.6,103.6,0,0,0,5.14,29.23,87.14,87.14,0,0,0-13.36,5.77A61.49,61.49,0,0,1,7,73.28Zm30.14,35.91A58.73,58.73,0,0,0,49,127.26,61.72,61.72,0,0,1,26,113.4,91.14,91.14,0,0,1,37.16,109.19Zm53.16,17.35a59.81,59.81,0,0,0,11.29-17.71,94.71,94.71,0,0,1,10.5,3.76A62,62,0,0,1,90.32,126.54Zm26.55-19.23a89.65,89.65,0,0,0-12.7-5.2,103.63,103.63,0,0,0,5-28.83h21.1A61.54,61.54,0,0,1,116.87,107.31Z"/></g><g id="Capa_3" data-name="Capa 3"><path class="cls-2" d="M105.88,101.78l-4.8-11.09-9.76,4.22L86.85,84.59a36.89,36.89,0,1,0-11.69,5L79.65,100l-9.18,4,4.8,11.1,9.18-4L88.76,121l11.66-5L96.12,106ZM77.66,78.56A27.09,27.09,0,1,1,91.77,42.94,27.09,27.09,0,0,1,77.66,78.56Z"/><path class="cls-2" d="M71.48,33.44c-.65.06-8.49,1.9-8.53,11.34-6.91-6.43-13.63-2-14.11-1.55,0,0-9.09,7.28-.37,16.63,8.42,9,25,11.77,26.14,12l0,0,0,0h0v0c.66-1,10-14.92,9.18-27.23C83,31.79,71.48,33.44,71.48,33.44Z"/></g></g></svg>